# xmcd
#
# Track frame offsets:
#	150
#	13652
#	29871
#	43613
#	58651
#	76655
#	92015
#	104411
#	122328
#	139084
#	153195
#	166742
#	180621
#	193584
#	204655
#
# Disc length: 2941 seconds
#
# Revision: 0
# Processed by: cddbd v1.5.2PL0 Copyright (c) Steve Scherf et al.
# Submitted via: EZCDAudioConverter 2.1.5.1
#
DISCID=be0b7b0f
DTITLE=Lasse Stefanz - Night Flight CD
DYEAR=2019
DGENRE=Swedish Top 40 Dansband/Country 10s
TTITLE0=I Din Faders Hus
TTITLE1=Där Livet Når Sitt Slut
TTITLE2=Vill Du Ha Mera
TTITLE3=Två Ögon Blå
TTITLE4=Stories We Could Tell
TTITLE5=Du Läser Mellan Raderna Carina
TTITLE6=Svanvik
TTITLE7=Längtans Café
TTITLE8=Old Country
TTITLE9=Senorita
TTITLE10=Var Det En Tår Jag Såg
TTITLE11=Tro På Mig Jag Vet
TTITLE12=Vill Va' Din
TTITLE13=The Wonder Of You
TTITLE14=Tomma Ord
EXTD=
EXTT0=
EXTT1=
EXTT2=
EXTT3=
EXTT4=
EXTT5=
EXTT6=
EXTT7=
EXTT8=
EXTT9=
EXTT10=
EXTT11=
EXTT12=
EXTT13=
EXTT14=
PLAYORDER=
